<svg xmlns="http://www.w3.org/2000/svg" version="1.1" xmlns:xlink="http://www.w3.org/1999/xlink" width="1500" height="1500" viewBox="0 0 1500 1500"><rect width="1500" height="1500" x="0" y="0" id="background" stroke="transparent" fill="#ffffff"></rect><svg xml:space="preserve" width="1000" height="1000" data-version="2" data-id="lg_QTng5AweeHfwyy7VWg" viewBox="0 0 472 571" x="250" y="250"><rect width="100%" height="100%" fill="transparent"></rect><rect width="598.8" height="494.65" x="-299.4" y="-247.33" fill="#6f6f6f" rx="237" ry="237" transform="matrix(0 -.9352 .9352 0 236 285.5)"></rect><rect width="553.76" height="447.66" x="-276.88" y="-223.83" stroke="#d8d8d8" stroke-width="7" rx="220" ry="220" transform="matrix(0 -.9352 .9352 0 236 285.5)"></rect><rect width="55.53" height="100" x="-27.77" y="-50" fill="#6f6f6f" rx="0" ry="0" transform="matrix(.9352 0 0 .7014 39.48 285.38)"></rect><rect width="55.53" height="100" x="-27.77" y="-50" fill="#6f6f6f" rx="0" ry="0" transform="matrix(.9352 0 0 .7014 432.52 285.38)"></rect><path fill="#d8d8d8" d="M165.74 186.54q.34 0 .34.68 0 .69-.34.69-3.2 0-5.13-.12l-7.53-.11-7.52.11q-1.94.12-5.36.12-.34 0-.34-.69 0-.68.34-.68 4.1 0 5.93-.57 1.82-.57 2.45-2.17.63-1.59.63-5.13l-.12-26.67h-40.13v26.67q0 3.54.63 5.13.63 1.6 2.51 2.17 1.88.57 5.98.57.23 0 .23.68 0 .69-.23.69-3.3 0-5.24-.12l-7.87-.11-7.29.11q-1.83.12-5.13.12-.34 0-.4-.69-.06-.68.4-.68 3.99 0 5.87-.57t2.56-2.22q.69-1.66.69-5.08v-52.78q0-3.42-.63-5.01-.63-1.6-2.51-2.23-1.88-.62-5.75-.62-.35 0-.35-.69 0-.68.35-.68l5.01.11q4.56.23 7.41.23 2.97 0 7.53-.23l5.47-.11q.23 0 .23.68 0 .69-.23.69-4.11 0-5.99.68t-2.5 2.34q-.63 1.65-.75 5.07v23.48h40.13v-23.48q.12-3.42-.51-5.07-.63-1.66-2.51-2.34-1.88-.68-5.87-.68-.34 0-.34-.69 0-.68.23-.68l5.47.11q4.56.23 7.29.23 2.85 0 7.41-.23l5.36-.11q.34 0 .34.68 0 .69-.34.69-3.99 0-5.87.62-1.88.63-2.56 2.23-.69 1.59-.8 5.01v52.78q.11 3.42.8 5.08.68 1.65 2.62 2.22 1.94.57 5.93.57"></path><rect width="73.96" height="71.25" x="-36.98" y="-35.63" fill="none" rx="0" ry="0" transform="translate(129.6 152.78)"></rect><path fill="#d8d8d8" d="M209.97 181.64q.34 0 .74.34.4.34.17.68-7.52 6.62-16.76 6.62-6.38 0-10.94-2.97-4.56-2.96-6.84-7.86-2.28-4.91-2.28-10.49 0-6.61 3.08-12.49 3.07-5.87 8.49-9.46 5.41-3.59 12.25-3.59 4.56 0 7.13 1.65 2.56 1.66 2.56 4.51-.11 5.01-7.75 9.17-7.64 4.17-18.81 5.76.23 9.92 4.62 15.9 4.39 5.99 12.48 5.99 2.97 0 6.04-.91 3.08-.91 5.59-2.85Zm-16.99-36.14q-5.81 0-8.78 4.56-2.96 4.56-3.19 11.86 18.36-3.08 18.36-11.75 0-2.28-1.71-3.47-1.71-1.2-4.68-1.2"></path><rect width="36.98" height="46.86" x="-18.49" y="-23.43" fill="none" rx="0" ry="0" transform="translate(193.05 166.35)"></rect><path fill="#d8d8d8" d="M264.69 179.13q.11-.11.34-.11.34 0 .68.39.35.4.23.63-3.3 4.56-6.1 6.73-2.79 2.16-5.64 2.16-6.38 0-6.38-9l.22-14.14q-3.76 10.6-9.86 17.1-6.1 6.5-12.94 6.5-4.33 0-7.01-3.02-2.68-3.02-2.68-9.63 0-7.87 3.82-15.91 3.82-8.03 9.98-13.22 6.15-5.19 12.54-5.19 2.39 0 4.73.8 2.34.8 4.16 2.39 1.82-1.82 2.17-3.99.11-.22.85-.22t.63.22l-.23 36.14q-.11 6.61 3.19 6.61 2.85 0 7.3-5.24m-35.8 4.67q4.68 0 9.01-4.5t7.01-11.11q2.68-6.62 2.68-12.43 0-4.22-2.45-6.78-2.45-2.57-6.44-2.57-4.56 0-8.44 3.31-3.88 3.3-6.16 9.12-2.28 5.81-2.28 12.99 0 6.16 1.77 9.07 1.77 2.9 5.3 2.9"></path><rect width="50.46" height="47.99" x="-25.23" y="-24" fill="none" rx="0" ry="0" transform="translate(241.28 165.9)"></rect><path fill="#d8d8d8" d="M280.42 188.93q-3.19 0-4.9-2.28-1.71-2.28-1.6-6.72l.69-62.59q0-2.73-.8-4.05-.8-1.31-2.74-1.31-1.94 0-5.7 1.71l-.23.12q-.34 0-.57-.57-.22-.57.23-.8l14.71-7.18h.23q.45 0 .85.34.4.34.4.57l-.57 71.59q0 3.42.8 5.02.8 1.59 2.51 1.59 2.85 0 7.18-5.24.11-.11.34-.11.46 0 .86.39.39.4.17.63-3.54 4.56-6.22 6.73-2.68 2.16-5.64 2.16"></path><rect width="28" height="83.67" x="-14" y="-41.84" fill="none" rx="0" ry="0" transform="translate(278.93 147.6)"></rect><path fill="#d8d8d8" d="M327.62 179.81q.34 0 .68.4t.11.63q-4.78 4.45-8.6 6.44-3.82 2-7.7 2-4.33 0-7.18-2.28-2.85-2.28-2.74-7.41l.12-26.57q-.12-2.96-.46-4.21-.34-1.26-1.42-1.66-1.09-.4-3.71-.4-.45 0-.51-.68t.4-.68q4.33 0 7.01-2.46 2.68-2.45 3.13-6.32 0-.34.92-.34 1.14 0 1.14.34v8.43q4.21-.11 15.84-.79.46 0 .74.28.29.29.29.74-.12 1.14-1.2 2.51-1.08 1.37-2.45 1.14-7.87-1.03-13.22-1.14l-.12 28.27q0 4.68 1.66 6.78 1.65 2.11 5.87 2.11 3.19 0 5.81-1.31 2.62-1.31 5.47-3.82Z"></path><rect width="32.39" height="53.01" x="-16.19" y="-26.5" fill="none" rx="0" ry="0" transform="translate(312.88 163.28)"></rect><path fill="#d8d8d8" d="M383.36 179.13q.12-.11.34-.11.46 0 .86.39.4.4.17.63-3.65 4.68-6.33 6.78-2.68 2.11-5.53 2.11-6.49 0-6.27-9l.12-20.29q.11-12.77-6.84-12.77-4.33 0-7.87 4.67-3.53 4.68-5.7 13.8-2.16 9.12-2.39 21.77 0 1.71-3.65 1.71-1.71 0-2.28-.17-.57-.17-.68-.51l.11-2.74.11-5.93.8-62.13q0-5.36-3.76-5.36-2.05 0-5.81 1.71h-.23q-.46 0-.63-.51-.17-.51.17-.74l14.94-7.18h.22q.35 0 .8.34.46.34.46.57l-.46 61.79q2.17-11.97 7.13-18.76 4.96-6.78 12.02-6.78 5.02 0 7.47 3.65t2.34 11.4l-.12 20.29q0 3.42.8 5.02.8 1.59 2.51 1.59 2.85 0 7.18-5.24"></path><rect width="57.1" height="83.67" x="-28.55" y="-41.84" fill="none" rx="0" ry="0" transform="translate(356.84 147.6)"></rect><path fill="#d8d8d8" d="M250.368 313.057c-.95.267-.552 1.69.398 1.424 1.1-.308 2.3 1.1 2.411 2.111.106.98 1.576.82 1.467-.16-.203-1.904-2.242-3.944-4.276-3.375m17.583-10.809c.803.062 1.721-.868 2.046-1.994.204-.722.119-1.367-.188-1.74 1.21-2.226 2.769-3.21 3.607-3.002 1.217.3 1.666-1.524.449-1.822-2.6-.643-5.142 2.244-6.446 5.546-.106.255-1.23 2.875.532 3.012m-61.584 87.19a4.622 4.622 0 1 0-8.68 3.165 4.622 4.622 0 0 0 8.68-3.165m58.148-89.787c.36.158.8.107 1.111-.307.035-.04 1.385-1.852 2.527-4.914h-1.877a13.741 13.741 0 0 1-1.76 5.22"></path><path fill="#d8d8d8" d="M193.874 393.991a8.674 8.674 0 0 1 4.824-10.977 35.042 35.042 0 0 1-.096-1.031c-.088-1.087.331-1.885.972-2.387-.194-8.945 2.752-18.318 8.15-26.592a4600.747 4600.747 0 0 1-12.117 4.008c-18.076 6.169-29.48 10.025-31.997 24.282-.028.155-1.03 9.612-1.2 17.521v.002h35.81a8.624 8.624 0 0 1-4.346-4.826m44.172-62.308h-2.033c-1.251 0-1.251 1.876 0 1.876h2.033c1.253 0 1.253-1.876 0-1.876m-8.84-41.075c.18.125.355.214.533.27a8.397 8.397 0 0 0-15.37-2.544 17.652 17.652 0 0 1 5.146-.757c3.73 0 7.031 1.14 9.692 3.03m19.368 28.089c.034-.033.067-.062.096-.095a18.96 18.96 0 0 0 2.075-.71c1.163-.466.462-2.209-.701-1.742-2.483.998-4.392 1.237-8.182 1.359 0 0-1.969.086-4.847.103a144.652 144.652 0 0 1-4.833-.103c-3.79-.12-5.699-.36-8.184-1.359-1.16-.467-1.864 1.276-.701 1.742.718.29 1.39.52 2.062.705l.1.1c4.125 3.817 4.786 5.982 11.55 5.985 6.765-.003 7.436-2.165 11.565-5.985m-18.078 2.264c-.615-.498-1.197-1.093-1.868-1.781 1.02.104 2.146.164 3.474.203 0 0 1.998.09 4.92.107a142.395 142.395 0 0 0 4.909-.107 50.454 50.454 0 0 0 3.47-.2c-.663.678-1.245 1.267-1.853 1.765-.99.597-3.727.953-6.555.972-2.8-.018-5.49-.372-6.497-.959"></path><path fill="#d8d8d8" d="M265.096 382.25a40.486 40.486 0 0 1-.628-1.599c-.37-1.003-.194-1.884.277-2.53-2.168-6.82-2.517-13.485-3.222-20.836-.21-2.194-.484-4.26-.979-6.175-.616-.212-1.114-.38-1.461-.506a.917.917 0 0 0-.121-.404l-2.292-6.364h-.003l-1.785-4.947a.847.847 0 0 0-.15-.362.899.899 0 0 0-.268-.289l-.66-.64 1.407-6.1a.957.957 0 0 0 .026-.136c2.324-1.689 4.42-3.875 6.175-6.69 2.297-3.692 3.986-8.4 4.805-14.37 3.874.914 6.576-2.16 9.822-8.327 1.232-2.336 4.508-11.58-1.24-13.46-1.853-.599-3.761-.067-5.453 1.127.55-3.814 3.137-6.48 3.137-11.294 0-4.23-.152-8.328-.595-12.237-1.91-16.601-9.314-29.219-33.173-29.791a69.592 69.592 0 0 0-1.557-.02h-.29a66.985 66.985 0 0 0-4.557.162c-20.348 1.443-27.583 12.513-29.833 27.185-.688 4.487-.917 9.332-.927 14.363v.34c0 4.773 2.544 7.435 3.123 11.196a7.651 7.651 0 0 0-2.26-1.067c-4.324-1.178-6.558 2.331-6.34 6.525.213 4.089 2.507 8.42 4.887 11.7 2.106 2.906 4.232 4.218 6.89 3.626.952 6.94 3.065 12.19 5.98 16.1a23.145 23.145 0 0 0 4.857 4.844 1.485 1.485 0 0 0 .029.228l1.411 6.102-.72.698a.933.933 0 0 0-.257.383l-.067.062-1.827 5.084v.005l-2.271 6.326a.863.863 0 0 0-.124.439c-.405.14-1.016.35-1.785.612-6.742 8.641-10.358 18.764-10.183 28.202.65.404 1.134 1.107 1.217 2.122.028.369.064.73.104 1.093a8.646 8.646 0 0 1 5.958 5.423 8.67 8.67 0 0 1-4.342 10.762h51.02c-1.27-7.129 1.58-12.87 8.245-16.565m5.513-103.899c0 .69-.06 1.331-.17 1.94a46.335 46.335 0 0 1-2.59-.416 45.65 45.65 0 0 1-2.815-.62c-.12-.472-.225-.946-.318-1.432a63.858 63.858 0 0 0 5.888-.273zm-.04-3.445c-1.892.45-3.95.768-6.12.926a20.642 20.642 0 0 1-.054-2.473l.029-.752a44.554 44.554 0 0 0 5.958-2.186c.093 1.473.153 2.97.187 4.485m-7.946-27.067c1.424 1.116 2.214 2.543 2.188 4.23-.092 5.834-9.852 12.569-21.81 15.047a42.586 42.586 0 0 1-7.836.912c14.795-5 25.91-12.983 27.458-20.189m-33.158-8.584c-6.5 2.793-12.445 6.098-17.71 9.826-1.22.765-2.37 1.55-3.443 2.352 1.783-5.165 10.61-10.315 21.153-12.178m-25.847 31.8a48.502 48.502 0 0 0 6.014 1.975 26.657 26.657 0 0 1-.03 2.889 40.813 40.813 0 0 1-6.14-.69 119.109 119.109 0 0 1 .156-4.173m-.055 9.018a11.319 11.319 0 0 1-.134-1.723l.003-.338v-.34c1.9.128 3.891.176 5.962.137-.054.327-.108.652-.175.975a46.976 46.976 0 0 1-5.656 1.289m11.767 45.214c-2.819-3.788-4.909-9.056-5.75-16.302a1.126 1.126 0 0 0-.048-.224c-.063-.315-.328-.56-.729-.597a1.333 1.333 0 0 0-.424.03 2.219 2.219 0 0 0-.532.19c-1.806.563-3.333.013-5.372-2.803-2.149-2.962-4.332-6.984-4.52-10.687-.143-2.745.883-5.454 3.98-4.607 1.086.297 2.25 1.064 3.33 2.256l-.004-4.204h2.762c.512-2.514 1.82-4.788 2.721-8.769.421-1.837.666-3.969.545-6.61a36.075 36.075 0 0 0-.166-2.118c-.532-4.838 1.481-5.155 6.816-3.56 6.258 1.874 12.416 4.794 19.086 4.794 6.631 0 12.773-2.89 18.989-4.766 7.95-2.396 6.924.255 6.723 5.991-.245 7.147 2.547 10.527 3.237 15.04h2.775v4.377c1.851-2.134 3.89-2.927 5.49-2.413 3.292 1.08 1.86 7.524.14 10.798-3.537 6.709-5.583 8.07-8.097 7.267l-.405-.16-.1-.041-.097-.034a.873.873 0 0 0-.739.09.878.878 0 0 0-.427.611l-.017.1-.014.11c-.731 6.247-2.412 11.016-4.67 14.642-3.898 6.245-9.654 9.19-15.912 10.298-3.002.527-1.946 1.705-6.876 1.705-4.914 0-3.898-1.178-6.944-1.717-5.65-1.006-10.91-3.538-14.75-8.687m1.657 57.608-4.111.803-1-5.14-5.143.998-.8-4.113 5.143-.998-1-5.138 4.111-.798 1 5.136 5.14-.998.799 4.112-5.14.999zm11.793 12.464-9.13-30.287a.87.87 0 0 0 .402.11.94.94 0 0 0 .207.014c2.565-.068 4.14-1.633 5.44-3.57 1.24-1.848 2.396-4.305 4.158-6.79l.293-.407 3.811 6.075zm-.46-41.604c-1.765 2.496-2.93 4.964-4.183 6.824-1.036 1.547-2.002 2.447-3.326 2.679l-4.012-12.591 2.463-6.832v-.002l1.549-4.284a12.953 12.953 0 0 0 3.135 4.284v.005c2.695 2.439 6.312 3.713 10.1 4.13-2.514 1.762-4.315 3.787-5.726 5.787m-1.238-9.922c-1.98-1.2-3.619-2.91-4.642-5.245-.347-.798-.461-1.341-.461-1.341l-1.046-4.52c2.755 1.57 5.754 2.55 8.826 3.097.478.085.8.21 1.096.363 2.268 1.128 3.41 1.383 6.169 1.383 2.708 0 4.052-.34 5.039-.796.778-.362 1.287-.782 2.206-.94 3.03-.538 5.99-1.497 8.718-3.03l-1.02 4.417s-.14.535-.528 1.34c-1.108 2.327-2.788 4.052-4.795 5.272-2.785 1.695-6.208 2.416-9.673 2.416-3.48 0-7.04-.684-9.888-2.416m22.745.002a14.239 14.239 0 0 0 3.302-4.275l1.539 4.273h.001l2.478 6.866-4.026 12.559c-1.22-.214-2.137-.998-3.083-2.323-2.238-3.132-3.356-6.152-6.08-9.284a22.458 22.458 0 0 0-4.089-3.69c3.746-.433 7.258-1.746 9.958-4.126m-4.672 51.524-5.185-34.855 3.802-6.059c1.742 2.44 2.985 5.128 4.736 7.58 1.257 1.762 2.788 3.119 5.196 3.17a.93.93 0 0 0 .57-.115z"></path><path fill="#d8d8d8" d="M223.513 313.054c-2.032-.567-4.072 1.472-4.279 3.376-.11.979 1.364 1.142 1.468.16.113-1.012 1.314-2.418 2.41-2.11.953.266 1.35-1.157.401-1.426m47.423 68.772c1.325 3.24-3.53 5.454-5.085 2.15-5.926 3.345-8.364 8.39-7.1 14.841h31.93c-.277-2.374-.95-4.849-2.005-7.333-3.708-8.736-9.762-12.012-17.74-9.658"></path><path fill="#d8d8d8" d="M310.325 381.296c-2.524-14.257-13.924-18.114-32-24.282 0 0-8.265-2.721-14.112-4.67.782 4.075.863 8.323 1.265 12.427.382 3.878.987 7.966 2.37 12.242.757.203 1.44.75 1.801 1.735.162.448.338.902.526 1.347 9.054-2.768 16.13 1 20.227 10.655 1.21 2.856 1.903 5.555 2.147 8.065h18.973c-.17-7.905-1.17-17.361-1.197-17.52m-70.604-71.743c-.481.363-1.04.62-2.73.62-1.686 0-2.215-.253-2.702-.62-1.1-.823-2.447-.982-3.557-.17-.217.158-.33.287-.33.287-.844.924.537 2.191 1.386 1.27.471-.348.886-.249 1.373.115.098.074.198.142.325.232 1.11.843 2.002 1.711 3.55 1.71 1.551.003 2.427-.867 3.537-1.71a1.95 1.95 0 0 0 .147-.136l.127-.097c.411-.31.889-.474 1.377-.116.847.923 2.23-.346 1.385-1.27-.994-1.135-2.746-.972-3.888-.115m7.095-14.33c.597-1.32 2.206-2.492 4.372-2.901a2.77 2.77 0 1 0 2.956-.067c2.346.33 4.05 1.555 4.69 2.967.542 1.196 2.337.384 1.795-.814-1.16-2.564-4.238-4.212-7.749-4.214-3.5 0-6.695 1.638-7.863 4.214-.54 1.2 1.254 2.012 1.8.814m8.022-7.646c1.651 0 3.24.224 4.725.635a8.397 8.397 0 0 0-7.552-3.898c-.768.105-1.52.25-2.25.434a8.405 8.405 0 0 0-5.509 6.204 1.77 1.77 0 0 0 .893-.342c2.66-1.89 5.962-3.031 9.693-3.033"></path><path fill="#d8d8d8" d="M234.34 293.553c.296-3.162 1.546-3.772 2.68-3.798 1.102.026 2.352.636 2.646 3.798.46 6.674 6.01 11.951 12.8 11.951a12.808 12.808 0 0 0 12.796-12.178h2.384v-3.878h-2.782a12.823 12.823 0 0 0-24.234-1.67c-.946-.85-2.157-1.317-3.596-1.337h-.067c-1.434.02-2.644.486-3.594 1.336a12.816 12.816 0 0 0-24.23 1.67h-2.78v3.879h2.38a12.813 12.813 0 0 0 12.8 12.178c6.783 0 12.341-5.277 12.796-11.951m28.89-2.893h2.807v1.375h-2.808zm-10.763-7.464a9.498 9.498 0 1 1 0 18.996 9.498 9.498 0 0 1 0-18.996m-41.687 8.84h-2.805v-1.376h2.805zm1.267.658a9.498 9.498 0 1 1 18.996 0 9.498 9.498 0 0 1-18.996 0"></path><path fill="#d8d8d8" d="M205.886 294.432a23.932 23.932 0 0 0 1.561 3.383c.558.992.966 1.53.966 1.53.334.446.78.542 1.137.415a13.846 13.846 0 0 1-1.816-5.328zm18.512.204c0-.963-.492-1.813-1.237-2.309 2.166.411 3.777 1.581 4.375 2.901.542 1.197 2.34.385 1.798-.814-1.166-2.576-4.362-4.214-7.863-4.214-3.511 0-6.59 1.65-7.75 4.214-.541 1.197 1.257 2.01 1.794.812.64-1.412 2.347-2.638 4.69-2.967a2.77 2.77 0 1 0 4.193 2.377m-24.082-.946c-1.213.298-.761 2.12.452 1.822.842-.209 2.397.775 3.604 3.002-.298.373-.388 1.018-.181 1.74.321 1.126 1.237 2.058 2.042 1.994 1.762-.137.64-2.759.532-3.012-1.306-3.302-3.845-6.19-6.449-5.546M149.46 490.13l-15.43-41.3h6.65l10.73 33.07 6.84-20.38-4.76-12.69h6.65l10.73 33.07 11.1-33.07h3.05l-15.12 41.3h-.98l-9.33-25.01-9.15 25.01Z"></path><rect width="50.99" height="41.3" x="-25.5" y="-20.65" fill="none" rx="0" ry="0" transform="translate(160.03 469.98)"></rect><path fill="#d8d8d8" d="M198.51 489.95q-3.79 0-6.81-1.59-3.02-1.58-4.72-4.63-1.71-3.05-1.71-7.45 0-5.06 1.95-8.47 1.95-3.42 5.12-5.16 3.18-1.74 6.78-1.74 2.86 0 5.21 1.5 2.35 1.49 3.78 4.45 1.44 2.96 1.44 7.35h-19.46q0 4.76 1.49 7.47 1.5 2.72 3.91 3.82 2.41 1.09 5.03 1.09 2.38 0 4.21-.48 1.83-.49 3.35-1.16v2.13q-1.89 1.1-4.33 1.98-2.44.89-5.24.89m-8.18-17.57h14.28q-.19-2.74-1.19-4.45-1.01-1.71-2.38-2.59-1.38-.89-2.75-1.22-1.37-.34-2.29-.34-2.07.98-3.62 3.26-1.56 2.29-2.05 5.34"></path><rect width="24.28" height="29.04" x="-12.14" y="-14.52" fill="none" rx="0" ry="0" transform="translate(197.91 475.93)"></rect><path fill="#d8d8d8" d="M250.17 489.95q-4.39 0-8.42-1.19-4.02-1.19-7.16-3.66-3.14-2.47-4.97-6.19-1.83-3.72-1.83-8.79 0-5.85 2.1-10.03t5.58-6.83q3.48-2.66 7.63-3.91 4.14-1.25 8.17-1.25 1.89 0 3.97.31 2.07.3 3.84.73t2.74.79l-.61 4.15q-3.29-1.4-6.49-2.44-3.21-1.04-7.17-1.04-6.47 1.47-9.88 6.38-3.42 4.91-3.42 12.17 0 6.1 2.23 10.28 2.22 4.17 6.07 6.28 3.84 2.1 8.78 2.1 3.23 0 6.41-.82 3.17-.82 5.06-2.47v3.35q-1.83.74-4.09 1.19-2.25.46-4.48.68-2.23.21-4.06.21"></path><rect width="35.01" height="41.85" x="-17.5" y="-20.93" fill="none" rx="0" ry="0" transform="translate(245.8 469.52)"></rect><path fill="#d8d8d8" d="m286.28 490.01-4.94-4.45q-2.19 2.01-4.3 3.2-2.1 1.19-4.6 1.19-2.5 0-4.52-1.65-2.01-1.65-2.01-4.7 0-2.37 1.59-3.99 1.58-1.62 4.02-2.59 2.44-.98 5.07-1.47 2.62-.49 4.69-.61v-5.73q0-5.06-5.85-5.06-1.53 0-3.51.33-1.98.34-4.42 1.13l-.55-1.53q.67-.54 2.25-1.28 1.59-.73 3.66-1.31 2.08-.58 4.21-.58 3.48 0 5.37 1.01 1.89 1.01 2.69 2.56.79 1.56.97 3.23.18 1.68.18 3.02v10.37q0 2.08.58 3.42.58 1.34 1.35 2.07.76.74 1.25 1.1Zm-11.52-2.87q1.46-.3 2.95-1.19 1.5-.88 2.54-1.83 1.03-.94 1.03-1.37v-6.28q-4.57.3-7.29 1.98-2.71 1.68-2.71 3.57t1.01 3.26q1 1.37 2.47 1.86"></path><rect width="23.55" height="29.1" x="-11.78" y="-14.55" fill="none" rx="0" ry="0" transform="translate(278.19 475.96)"></rect><path fill="#d8d8d8" d="M294.15 489.22v-27.58h3.54l1.4 5.13q.8-1.34 2.23-2.69 1.43-1.34 3.3-2.34 1.86-1.01 3.81-1.32l.61 4.21q-1.59 0-3.42.67-1.83.68-3.51 1.71-1.67 1.04-2.83 2.14v20.07Z"></path><rect width="14.89" height="28.8" x="-7.45" y="-14.4" fill="none" rx="0" ry="0" transform="translate(302.1 475.32)"></rect><path fill="#d8d8d8" d="M323.74 489.95q-3.78 0-6.8-1.59-3.02-1.58-4.73-4.63-1.71-3.05-1.71-7.45 0-5.06 1.95-8.47 1.96-3.42 5.13-5.16 3.17-1.74 6.77-1.74 2.87 0 5.21 1.5 2.35 1.49 3.79 4.45 1.43 2.96 1.43 7.35h-19.46q0 4.76 1.5 7.47 1.49 2.72 3.9 3.82 2.41 1.09 5.03 1.09 2.38 0 4.21-.48 1.83-.49 3.36-1.16v2.13q-1.9 1.1-4.34 1.98-2.44.89-5.24.89m-8.18-17.57h14.28q-.18-2.74-1.19-4.45t-2.38-2.59q-1.37-.89-2.74-1.22-1.38-.34-2.29-.34-2.08.98-3.63 3.26-1.56 2.29-2.05 5.34"></path><rect width="24.28" height="29.04" x="-12.14" y="-14.52" fill="none" rx="0" ry="0" transform="translate(323.14 475.93)"></rect><path fill="#d8d8d8" d="M19.49 292.25q0-1.55 3.11-3.32.71-.38 2.31-1.17 4.66-2.4 6.34-4.03 2.1-2.1 2.1-4.54 0-4.11-4.45-5.54-1.81-.59-3.95-.59-4.37 0-6.55 2.18-1.3 1.31-1.3 3.11 0 2.06 1.51 2.56.38.13.76.13 2.01 0 2.43-1.93.08-.47.13-1.47.16-2.23.88-2.86.63-.59 1.8-.59 2.9 0 3.57 3.07.17.8.17 1.64 0 4.32-3.32 6.88-.5.38-3.57 2.31-2.93 1.85-3.82 3.78-.63 1.39-.63 3.07v1.09h16.76l.04-7.64h-.92l-.72 2.01q-.54 1.51-1.68 1.77-.5.08-1.38.08Z"></path><rect width="16.8" height="22.97" x="-8.4" y="-11.48" fill="none" rx="0" ry="0" transform="translate(25.91 285.05)"></rect><path fill="#d8d8d8" d="M47.92 273.06q-5.33 0-8.15 4.11-2.05 3.07-2.05 7.48 0 6.8 4.11 9.95 2.48 1.85 5.88 1.85 5.29 0 8.02-4.16 2.02-3.06 2.02-7.47 0-7.35-4.45-10.29-2.31-1.47-5.38-1.47m-.08 22.26q-3.15 0-4.16-3.74-.67-2.44-.67-6.76 0-8.74 3.06-10.25.76-.38 1.72-.38 3.11 0 4.08 4.08.59 2.39.59 6.34 0 8.35-2.57 10.12-.88.59-2.05.59"></path><rect width="20.03" height="23.39" x="-10.02" y="-11.7" fill="none" rx="0" ry="0" transform="translate(48.23 285.25)"></rect><path fill="#d8d8d8" d="M415.46 291.22q0-1.55 3.11-3.31.71-.38 2.31-1.18 4.66-2.39 6.34-4.03 2.1-2.1 2.1-4.54 0-4.11-4.46-5.54-1.8-.59-3.94-.59-4.37 0-6.55 2.19-1.31 1.3-1.31 3.1 0 2.06 1.52 2.57.37.12.75.12 2.02 0 2.44-1.93.08-.46.12-1.47.17-2.23.89-2.86.63-.58 1.8-.58 2.9 0 3.57 3.06.17.8.17 1.64 0 4.32-3.32 6.89-.5.37-3.57 2.31-2.94 1.84-3.82 3.78-.63 1.38-.63 3.06V295h16.76l.04-7.64h-.93l-.71 2.02q-.55 1.51-1.68 1.76-.5.08-1.39.08Z"></path><rect width="16.8" height="22.97" x="-8.4" y="-11.48" fill="none" rx="0" ry="0" transform="translate(421.88 284.01)"></rect><path fill="#d8d8d8" d="M451.99 290.22q0-4.54-3.57-6.6-2.1-1.22-4.87-1.22-3.4.05-6.13 1.77v-7.94q3.28.38 5.84.38 4.49 0 5.71-1.18 1.09-1.3 1.13-4.66h-1.09q-.46 1.43-1.72 1.77-.88.25-2.61.25-.08 0-8.69-.38v12.3l1.43 1.1q2.27-1.81 4.66-1.81 3.44 0 4.62 3.32.46 1.34.46 2.98 0 5.21-3.11 6.55-.92.42-2.05.42-2.19 0-2.61-1.97-.12-.47-.16-1.47-.17-2.14-.89-2.73-.58-.51-1.63-.51-1.98 0-2.36 1.77-.08.37-.08.71 0 2.94 3.19 4.41 1.89.88 4.37.88 5.12 0 8.02-2.85 2.14-2.19 2.14-5.29"></path><rect width="17.72" height="27.59" x="-8.86" y="-13.79" fill="none" rx="0" ry="0" transform="translate(443.63 285.06)"></rect></svg></svg>